<svg xmlns="http://www.w3.org/2000/svg" viewBox="0 0 32 32" shape-rendering="crispEdges"><title>Jungle Jumper monkey icon</title><rect x="0" y="0" width="32" height="32" fill="#211936"/><rect x="6" y="23" width="20" height="3" fill="#2E8B7A"/><rect x="8" y="22" width="16" height="2" fill="#BADB49"/><rect x="6" y="12" width="5" height="7" fill="#8B6914"/><rect x="21" y="12" width="5" height="7" fill="#8B6914"/><rect x="7" y="14" width="3" height="3" fill="#D4A854"/><rect x="22" y="14" width="3" height="3" fill="#D4A854"/><rect x="10" y="8" width="12" height="14" fill="#8B6914"/><rect x="12" y="6" width="8" height="3" fill="#8B6914"/><rect x="11" y="11" width="10" height="9" fill="#D4A854"/><rect x="12" y="18" width="8" height="4" fill="#D4A854"/><rect x="12" y="12" width="3" height="4" fill="#FFE6A3"/><rect x="17" y="12" width="3" height="4" fill="#FFE6A3"/><rect x="13" y="13" width="2" height="3" fill="#211936"/><rect x="17" y="13" width="2" height="3" fill="#211936"/><rect x="14" y="18" width="4" height="1" fill="#211936"/><rect x="15" y="19" width="2" height="1" fill="#211936"/></svg>
